<mxfile host="Electron" modified="2023-04-26T13:28:26.222Z" agent="Mozilla/5.0 (Windows NT 10.0; Win64; x64) AppleWebKit/537.36 (KHTML, like Gecko) draw.io/21.1.2 Chrome/106.0.5249.199 Electron/21.4.3 Safari/537.36" etag="Src38adRP-SmMfVkvlZZ" version="21.1.2" type="device">
  <diagram name="Page-1" id="-TMrWeVjNmM6Da9IOrkC">
    <mxGraphModel dx="1888" dy="1093" grid="1" gridSize="10" guides="1" tooltips="1" connect="1" arrows="1" fold="1" page="1" pageScale="1" pageWidth="850" pageHeight="1100" math="0" shadow="0">
      <root>
        <mxCell id="0" />
        <mxCell id="1" parent="0" />
        <mxCell id="mgGKMjt8zCUld0qS8jRv-2" value="" style="whiteSpace=wrap;html=1;aspect=fixed;" parent="1" vertex="1">
          <mxGeometry x="570" y="230" width="320" height="320" as="geometry" />
        </mxCell>
        <mxCell id="mgGKMjt8zCUld0qS8jRv-5" value="" style="whiteSpace=wrap;html=1;aspect=fixed;" parent="1" vertex="1">
          <mxGeometry x="50" y="250" width="320" height="320" as="geometry" />
        </mxCell>
        <mxCell id="mgGKMjt8zCUld0qS8jRv-6" value="&lt;div style=&quot;color: rgb(212, 212, 212); background-color: rgb(30, 30, 30); font-family: Consolas, &amp;quot;Courier New&amp;quot;, monospace; font-size: 14px; line-height: 19px;&quot;&gt;myisolatedVNet&lt;br&gt;&lt;/div&gt;" style="image;aspect=fixed;html=1;points=[];align=center;fontSize=12;image=img/lib/azure2/networking/Virtual_Networks.svg;" parent="1" vertex="1">
          <mxGeometry x="696.5" y="230" width="67" height="40" as="geometry" />
        </mxCell>
        <mxCell id="mgGKMjt8zCUld0qS8jRv-7" value="&lt;div style=&quot;color: rgb(212, 212, 212); background-color: rgb(30, 30, 30); font-family: Consolas, &amp;quot;Courier New&amp;quot;, monospace; font-size: 14px; line-height: 19px;&quot;&gt;myVNet&lt;/div&gt;" style="image;aspect=fixed;html=1;points=[];align=center;fontSize=12;image=img/lib/azure2/networking/Virtual_Networks.svg;" parent="1" vertex="1">
          <mxGeometry x="176.5" y="250" width="67" height="40" as="geometry" />
        </mxCell>
        <mxCell id="mgGKMjt8zCUld0qS8jRv-8" value="&lt;div style=&quot;color: rgb(212, 212, 212); background-color: rgb(30, 30, 30); font-family: Consolas, &amp;quot;Courier New&amp;quot;, monospace; font-size: 14px; line-height: 19px;&quot;&gt;ubuntumaster&lt;br&gt;-inbound tcp&lt;br&gt;ports&amp;nbsp;4505-4506&lt;br&gt;allowed&lt;/div&gt;" style="image;aspect=fixed;html=1;points=[];align=center;fontSize=12;image=img/lib/azure2/compute/Virtual_Machine.svg;" parent="1" vertex="1">
          <mxGeometry x="80" y="310" width="69" height="64" as="geometry" />
        </mxCell>
        <mxCell id="NWdsYbLjLjOOZEH5t81Z-26" style="edgeStyle=orthogonalEdgeStyle;rounded=0;orthogonalLoop=1;jettySize=auto;html=1;entryX=0.986;entryY=0.54;entryDx=0;entryDy=0;entryPerimeter=0;" parent="1" source="mgGKMjt8zCUld0qS8jRv-9" target="mgGKMjt8zCUld0qS8jRv-13" edge="1">
          <mxGeometry relative="1" as="geometry">
            <Array as="points">
              <mxPoint x="810" y="138" />
            </Array>
          </mxGeometry>
        </mxCell>
        <mxCell id="mgGKMjt8zCUld0qS8jRv-9" value="&lt;div style=&quot;color: rgb(212, 212, 212); background-color: rgb(30, 30, 30); font-family: Consolas, &amp;quot;Courier New&amp;quot;, monospace; font-size: 14px; line-height: 19px;&quot;&gt;winminion2&lt;br&gt;-no public ip&lt;/div&gt;" style="image;aspect=fixed;html=1;points=[];align=center;fontSize=12;image=img/lib/azure2/compute/Virtual_Machine.svg;" parent="1" vertex="1">
          <mxGeometry x="770" y="300" width="69" height="64" as="geometry" />
        </mxCell>
        <mxCell id="mgGKMjt8zCUld0qS8jRv-16" style="edgeStyle=orthogonalEdgeStyle;rounded=0;orthogonalLoop=1;jettySize=auto;html=1;" parent="1" source="mgGKMjt8zCUld0qS8jRv-10" target="mgGKMjt8zCUld0qS8jRv-14" edge="1">
          <mxGeometry relative="1" as="geometry" />
        </mxCell>
        <mxCell id="mgGKMjt8zCUld0qS8jRv-10" value="&lt;div style=&quot;color: rgb(212, 212, 212); background-color: rgb(30, 30, 30); font-family: Consolas, &amp;quot;Courier New&amp;quot;, monospace; font-size: 14px; line-height: 19px;&quot;&gt;winminion1&lt;/div&gt;" style="image;aspect=fixed;html=1;points=[];align=center;fontSize=12;image=img/lib/azure2/compute/Virtual_Machine.svg;" parent="1" vertex="1">
          <mxGeometry x="270" y="460" width="69" height="64" as="geometry" />
        </mxCell>
        <mxCell id="NWdsYbLjLjOOZEH5t81Z-25" style="edgeStyle=orthogonalEdgeStyle;rounded=0;orthogonalLoop=1;jettySize=auto;html=1;entryX=0.996;entryY=0.926;entryDx=0;entryDy=0;entryPerimeter=0;" parent="1" source="mgGKMjt8zCUld0qS8jRv-11" target="mgGKMjt8zCUld0qS8jRv-13" edge="1">
          <mxGeometry relative="1" as="geometry" />
        </mxCell>
        <mxCell id="mgGKMjt8zCUld0qS8jRv-11" value="&lt;div style=&quot;color: rgb(212, 212, 212); background-color: rgb(30, 30, 30); font-family: Consolas, &amp;quot;Courier New&amp;quot;, monospace; font-size: 14px; line-height: 19px;&quot;&gt;ubuntuminion2&lt;br&gt;-no public ip&lt;br&gt;&lt;/div&gt;" style="image;aspect=fixed;html=1;points=[];align=center;fontSize=12;image=img/lib/azure2/compute/Virtual_Machine.svg;" parent="1" vertex="1">
          <mxGeometry x="590" y="300" width="69" height="64" as="geometry" />
        </mxCell>
        <mxCell id="mgGKMjt8zCUld0qS8jRv-21" style="edgeStyle=orthogonalEdgeStyle;rounded=0;orthogonalLoop=1;jettySize=auto;html=1;entryX=0;entryY=0.846;entryDx=0;entryDy=0;entryPerimeter=0;" parent="1" source="mgGKMjt8zCUld0qS8jRv-12" target="mgGKMjt8zCUld0qS8jRv-14" edge="1">
          <mxGeometry relative="1" as="geometry" />
        </mxCell>
        <mxCell id="mgGKMjt8zCUld0qS8jRv-12" value="&lt;div style=&quot;color: rgb(212, 212, 212); background-color: rgb(30, 30, 30); font-family: Consolas, &amp;quot;Courier New&amp;quot;, monospace; font-size: 14px; line-height: 19px;&quot;&gt;ubuntuminion&lt;/div&gt;" style="image;aspect=fixed;html=1;points=[];align=center;fontSize=12;image=img/lib/azure2/compute/Virtual_Machine.svg;" parent="1" vertex="1">
          <mxGeometry x="80" y="460" width="69" height="64" as="geometry" />
        </mxCell>
        <mxCell id="mgGKMjt8zCUld0qS8jRv-18" style="edgeStyle=orthogonalEdgeStyle;rounded=0;orthogonalLoop=1;jettySize=auto;html=1;endArrow=none;endFill=0;" parent="1" source="mgGKMjt8zCUld0qS8jRv-13" target="mgGKMjt8zCUld0qS8jRv-8" edge="1">
          <mxGeometry relative="1" as="geometry" />
        </mxCell>
        <mxCell id="mgGKMjt8zCUld0qS8jRv-13" value="&lt;span style=&quot;color: rgb(206, 145, 120); background-color: rgb(30, 30, 30); font-family: Consolas, &amp;quot;Courier New&amp;quot;, monospace; font-size: 14px;&quot;&gt;master public ip&lt;/span&gt;&lt;br&gt;&lt;div style=&quot;color: rgb(212, 212, 212); background-color: rgb(30, 30, 30); font-family: Consolas, &amp;quot;Courier New&amp;quot;, monospace; font-size: 14px; line-height: 19px;&quot;&gt;&lt;span style=&quot;color: #ce9178;&quot;&gt;&quot;ubuntumaster.swedencentral.cloudapp.azure.com&quot;&lt;/span&gt;&lt;/div&gt;" style="image;aspect=fixed;html=1;points=[];align=center;fontSize=12;image=img/lib/azure2/networking/Public_IP_Addresses.svg;" parent="1" vertex="1">
          <mxGeometry x="410" y="110" width="65" height="52" as="geometry" />
        </mxCell>
        <mxCell id="mgGKMjt8zCUld0qS8jRv-17" style="edgeStyle=orthogonalEdgeStyle;rounded=0;orthogonalLoop=1;jettySize=auto;html=1;endArrow=none;endFill=0;" parent="1" source="mgGKMjt8zCUld0qS8jRv-14" target="mgGKMjt8zCUld0qS8jRv-8" edge="1">
          <mxGeometry relative="1" as="geometry" />
        </mxCell>
        <mxCell id="mgGKMjt8zCUld0qS8jRv-14" value="master private ip&lt;br&gt;" style="image;aspect=fixed;html=1;points=[];align=center;fontSize=12;image=img/lib/azure2/networking/Public_IP_Addresses.svg;" parent="1" vertex="1">
          <mxGeometry x="270" y="316" width="65" height="52" as="geometry" />
        </mxCell>
        <mxCell id="NWdsYbLjLjOOZEH5t81Z-1" value="" style="whiteSpace=wrap;html=1;aspect=fixed;" parent="1" vertex="1">
          <mxGeometry x="1700" y="260" width="320" height="320" as="geometry" />
        </mxCell>
        <mxCell id="NWdsYbLjLjOOZEH5t81Z-2" value="" style="whiteSpace=wrap;html=1;aspect=fixed;" parent="1" vertex="1">
          <mxGeometry x="1020" y="240" width="540" height="540" as="geometry" />
        </mxCell>
        <mxCell id="NWdsYbLjLjOOZEH5t81Z-3" value="&lt;div style=&quot;color: rgb(212, 212, 212); background-color: rgb(30, 30, 30); font-family: Consolas, &amp;quot;Courier New&amp;quot;, monospace; font-size: 14px; line-height: 19px;&quot;&gt;myisolatedVNet&lt;br&gt;&lt;/div&gt;" style="image;aspect=fixed;html=1;points=[];align=center;fontSize=12;image=img/lib/azure2/networking/Virtual_Networks.svg;" parent="1" vertex="1">
          <mxGeometry x="1846.5" y="300" width="67" height="40" as="geometry" />
        </mxCell>
        <mxCell id="NWdsYbLjLjOOZEH5t81Z-4" value="&lt;div style=&quot;color: rgb(212, 212, 212); background-color: rgb(30, 30, 30); font-family: Consolas, &amp;quot;Courier New&amp;quot;, monospace; font-size: 14px; line-height: 19px;&quot;&gt;myVNet&lt;/div&gt;" style="image;aspect=fixed;html=1;points=[];align=center;fontSize=12;image=img/lib/azure2/networking/Virtual_Networks.svg;" parent="1" vertex="1">
          <mxGeometry x="1238" y="250" width="67" height="40" as="geometry" />
        </mxCell>
        <mxCell id="NWdsYbLjLjOOZEH5t81Z-5" value="&lt;div style=&quot;color: rgb(212, 212, 212); background-color: rgb(30, 30, 30); font-family: Consolas, &amp;quot;Courier New&amp;quot;, monospace; font-size: 14px; line-height: 19px;&quot;&gt;ubuntumaster&lt;br&gt;-inbound tcp&lt;br&gt;ports&amp;nbsp;4505-4506&lt;br&gt;allowed&lt;/div&gt;" style="image;aspect=fixed;html=1;points=[];align=center;fontSize=12;image=img/lib/azure2/compute/Virtual_Machine.svg;" parent="1" vertex="1">
          <mxGeometry x="1360" y="360" width="69" height="64" as="geometry" />
        </mxCell>
        <mxCell id="NWdsYbLjLjOOZEH5t81Z-28" style="edgeStyle=orthogonalEdgeStyle;rounded=0;orthogonalLoop=1;jettySize=auto;html=1;entryX=1.001;entryY=0.317;entryDx=0;entryDy=0;entryPerimeter=0;" parent="1" source="NWdsYbLjLjOOZEH5t81Z-7" target="NWdsYbLjLjOOZEH5t81Z-15" edge="1">
          <mxGeometry relative="1" as="geometry">
            <Array as="points">
              <mxPoint x="1960" y="96" />
            </Array>
          </mxGeometry>
        </mxCell>
        <mxCell id="NWdsYbLjLjOOZEH5t81Z-7" value="&lt;div style=&quot;color: rgb(212, 212, 212); background-color: rgb(30, 30, 30); font-family: Consolas, &amp;quot;Courier New&amp;quot;, monospace; font-size: 14px; line-height: 19px;&quot;&gt;winminion2&lt;br&gt;-no public ip&lt;/div&gt;" style="image;aspect=fixed;html=1;points=[];align=center;fontSize=12;image=img/lib/azure2/compute/Virtual_Machine.svg;" parent="1" vertex="1">
          <mxGeometry x="1920" y="370" width="69" height="64" as="geometry" />
        </mxCell>
        <mxCell id="NWdsYbLjLjOOZEH5t81Z-8" style="edgeStyle=orthogonalEdgeStyle;rounded=0;orthogonalLoop=1;jettySize=auto;html=1;entryX=1.015;entryY=0.538;entryDx=0;entryDy=0;entryPerimeter=0;" parent="1" source="NWdsYbLjLjOOZEH5t81Z-9" target="NWdsYbLjLjOOZEH5t81Z-17" edge="1">
          <mxGeometry relative="1" as="geometry" />
        </mxCell>
        <mxCell id="NWdsYbLjLjOOZEH5t81Z-9" value="&lt;div style=&quot;color: rgb(212, 212, 212); background-color: rgb(30, 30, 30); font-family: Consolas, &amp;quot;Courier New&amp;quot;, monospace; font-size: 14px; line-height: 19px;&quot;&gt;winminion1&lt;/div&gt;" style="image;aspect=fixed;html=1;points=[];align=center;fontSize=12;image=img/lib/azure2/compute/Virtual_Machine.svg;" parent="1" vertex="1">
          <mxGeometry x="1270" y="640" width="69" height="64" as="geometry" />
        </mxCell>
        <mxCell id="NWdsYbLjLjOOZEH5t81Z-29" style="edgeStyle=orthogonalEdgeStyle;rounded=0;orthogonalLoop=1;jettySize=auto;html=1;" parent="1" source="NWdsYbLjLjOOZEH5t81Z-11" target="NWdsYbLjLjOOZEH5t81Z-15" edge="1">
          <mxGeometry relative="1" as="geometry">
            <Array as="points">
              <mxPoint x="1774" y="280" />
              <mxPoint x="1830" y="280" />
              <mxPoint x="1830" y="106" />
            </Array>
          </mxGeometry>
        </mxCell>
        <mxCell id="NWdsYbLjLjOOZEH5t81Z-11" value="&lt;div style=&quot;color: rgb(212, 212, 212); background-color: rgb(30, 30, 30); font-family: Consolas, &amp;quot;Courier New&amp;quot;, monospace; font-size: 14px; line-height: 19px;&quot;&gt;ubuntuminion2&lt;br&gt;-no public ip&lt;br&gt;&lt;/div&gt;" style="image;aspect=fixed;html=1;points=[];align=center;fontSize=12;image=img/lib/azure2/compute/Virtual_Machine.svg;" parent="1" vertex="1">
          <mxGeometry x="1740" y="296" width="69" height="64" as="geometry" />
        </mxCell>
        <mxCell id="NWdsYbLjLjOOZEH5t81Z-12" style="edgeStyle=orthogonalEdgeStyle;rounded=0;orthogonalLoop=1;jettySize=auto;html=1;entryX=0;entryY=0.846;entryDx=0;entryDy=0;entryPerimeter=0;" parent="1" source="NWdsYbLjLjOOZEH5t81Z-13" target="NWdsYbLjLjOOZEH5t81Z-17" edge="1">
          <mxGeometry relative="1" as="geometry" />
        </mxCell>
        <mxCell id="NWdsYbLjLjOOZEH5t81Z-13" value="&lt;div style=&quot;color: rgb(212, 212, 212); background-color: rgb(30, 30, 30); font-family: Consolas, &amp;quot;Courier New&amp;quot;, monospace; font-size: 14px; line-height: 19px;&quot;&gt;ubuntuminion&lt;/div&gt;" style="image;aspect=fixed;html=1;points=[];align=center;fontSize=12;image=img/lib/azure2/compute/Virtual_Machine.svg;" parent="1" vertex="1">
          <mxGeometry x="1041" y="640" width="69" height="64" as="geometry" />
        </mxCell>
        <mxCell id="NWdsYbLjLjOOZEH5t81Z-14" style="edgeStyle=orthogonalEdgeStyle;rounded=0;orthogonalLoop=1;jettySize=auto;html=1;endArrow=none;endFill=0;" parent="1" source="NWdsYbLjLjOOZEH5t81Z-18" target="NWdsYbLjLjOOZEH5t81Z-5" edge="1">
          <mxGeometry relative="1" as="geometry" />
        </mxCell>
        <mxCell id="NWdsYbLjLjOOZEH5t81Z-15" value="&lt;span style=&quot;color: rgb(206, 145, 120); background-color: rgb(30, 30, 30); font-family: Consolas, &amp;quot;Courier New&amp;quot;, monospace; font-size: 14px;&quot;&gt;master public ip&lt;/span&gt;&lt;br&gt;&lt;div style=&quot;color: rgb(212, 212, 212); background-color: rgb(30, 30, 30); font-family: Consolas, &amp;quot;Courier New&amp;quot;, monospace; font-size: 14px; line-height: 19px;&quot;&gt;&lt;span style=&quot;color: #ce9178;&quot;&gt;&quot;ubuntumaster.swedencentral.cloudapp.azure.com&quot;&lt;/span&gt;&lt;/div&gt;" style="image;aspect=fixed;html=1;points=[];align=center;fontSize=12;image=img/lib/azure2/networking/Public_IP_Addresses.svg;" parent="1" vertex="1">
          <mxGeometry x="1590" y="80" width="65" height="52" as="geometry" />
        </mxCell>
        <mxCell id="NWdsYbLjLjOOZEH5t81Z-16" style="edgeStyle=orthogonalEdgeStyle;rounded=0;orthogonalLoop=1;jettySize=auto;html=1;endArrow=none;endFill=0;" parent="1" source="NWdsYbLjLjOOZEH5t81Z-17" target="NWdsYbLjLjOOZEH5t81Z-21" edge="1">
          <mxGeometry relative="1" as="geometry" />
        </mxCell>
        <mxCell id="NWdsYbLjLjOOZEH5t81Z-17" value="master private ip&lt;br&gt;" style="image;aspect=fixed;html=1;points=[];align=center;fontSize=12;image=img/lib/azure2/networking/Public_IP_Addresses.svg;" parent="1" vertex="1">
          <mxGeometry x="1110" y="564" width="65" height="52" as="geometry" />
        </mxCell>
        <mxCell id="NWdsYbLjLjOOZEH5t81Z-19" value="" style="edgeStyle=orthogonalEdgeStyle;rounded=0;orthogonalLoop=1;jettySize=auto;html=1;endArrow=none;endFill=0;" parent="1" source="NWdsYbLjLjOOZEH5t81Z-21" target="NWdsYbLjLjOOZEH5t81Z-18" edge="1">
          <mxGeometry relative="1" as="geometry">
            <mxPoint x="975" y="326" as="sourcePoint" />
            <mxPoint x="1085" y="490" as="targetPoint" />
          </mxGeometry>
        </mxCell>
        <mxCell id="NWdsYbLjLjOOZEH5t81Z-18" value="application gateway&lt;br&gt;WAF 2.0" style="image;aspect=fixed;html=1;points=[];align=center;fontSize=12;image=img/lib/azure2/networking/Application_Gateways.svg;" parent="1" vertex="1">
          <mxGeometry x="1243" y="360" width="64" height="64" as="geometry" />
        </mxCell>
        <mxCell id="NWdsYbLjLjOOZEH5t81Z-22" value="" style="edgeStyle=orthogonalEdgeStyle;rounded=0;orthogonalLoop=1;jettySize=auto;html=1;endArrow=none;endFill=0;" parent="1" source="NWdsYbLjLjOOZEH5t81Z-15" target="NWdsYbLjLjOOZEH5t81Z-21" edge="1">
          <mxGeometry relative="1" as="geometry">
            <mxPoint x="1470" y="126" as="sourcePoint" />
            <mxPoint x="1807" y="160" as="targetPoint" />
          </mxGeometry>
        </mxCell>
        <mxCell id="NWdsYbLjLjOOZEH5t81Z-21" value="WAF&lt;br&gt;Block: &lt;br&gt;- countries&lt;br&gt;- flagged ips&lt;br&gt;-etc&amp;nbsp;" style="image;aspect=fixed;html=1;points=[];align=center;fontSize=12;image=img/lib/azure2/networking/Web_Application_Firewall_Policies_WAF.svg;" parent="1" vertex="1">
          <mxGeometry x="1120" y="400" width="60" height="60" as="geometry" />
        </mxCell>
        <mxCell id="NWdsYbLjLjOOZEH5t81Z-24" style="edgeStyle=orthogonalEdgeStyle;rounded=0;orthogonalLoop=1;jettySize=auto;html=1;" parent="1" source="NWdsYbLjLjOOZEH5t81Z-23" target="NWdsYbLjLjOOZEH5t81Z-5" edge="1">
          <mxGeometry relative="1" as="geometry">
            <Array as="points">
              <mxPoint x="1470" y="392" />
            </Array>
          </mxGeometry>
        </mxCell>
        <mxCell id="NWdsYbLjLjOOZEH5t81Z-23" value="store installation packages &lt;br&gt;and other IaC code" style="image;aspect=fixed;html=1;points=[];align=center;fontSize=12;image=img/lib/azure2/storage/Storage_Accounts.svg;" parent="1" vertex="1">
          <mxGeometry x="1450" y="550" width="65" height="52" as="geometry" />
        </mxCell>
        <mxCell id="NWdsYbLjLjOOZEH5t81Z-34" style="edgeStyle=orthogonalEdgeStyle;rounded=0;orthogonalLoop=1;jettySize=auto;html=1;endArrow=none;endFill=0;" parent="1" source="NWdsYbLjLjOOZEH5t81Z-30" target="NWdsYbLjLjOOZEH5t81Z-2" edge="1">
          <mxGeometry relative="1" as="geometry" />
        </mxCell>
        <mxCell id="NWdsYbLjLjOOZEH5t81Z-39" value="VNET PEERING&lt;br&gt;" style="edgeLabel;html=1;align=center;verticalAlign=middle;resizable=0;points=[];" parent="NWdsYbLjLjOOZEH5t81Z-34" vertex="1" connectable="0">
          <mxGeometry x="0.3538" y="-4" relative="1" as="geometry">
            <mxPoint as="offset" />
          </mxGeometry>
        </mxCell>
        <mxCell id="NWdsYbLjLjOOZEH5t81Z-30" value="" style="whiteSpace=wrap;html=1;aspect=fixed;" parent="1" vertex="1">
          <mxGeometry x="1680" y="670" width="380" height="380" as="geometry" />
        </mxCell>
        <mxCell id="NWdsYbLjLjOOZEH5t81Z-31" value="&lt;div style=&quot;color: rgb(212, 212, 212); background-color: rgb(30, 30, 30); font-family: Consolas, &amp;quot;Courier New&amp;quot;, monospace; font-size: 14px; line-height: 19px;&quot;&gt;myisolatedVNet&lt;br&gt;&lt;/div&gt;" style="image;aspect=fixed;html=1;points=[];align=center;fontSize=12;image=img/lib/azure2/networking/Virtual_Networks.svg;" parent="1" vertex="1">
          <mxGeometry x="1846.5" y="704" width="67" height="40" as="geometry" />
        </mxCell>
        <mxCell id="NWdsYbLjLjOOZEH5t81Z-38" value="" style="edgeStyle=orthogonalEdgeStyle;rounded=0;orthogonalLoop=1;jettySize=auto;html=1;" parent="1" source="NWdsYbLjLjOOZEH5t81Z-32" target="NWdsYbLjLjOOZEH5t81Z-37" edge="1">
          <mxGeometry relative="1" as="geometry" />
        </mxCell>
        <mxCell id="NWdsYbLjLjOOZEH5t81Z-32" value="&lt;div style=&quot;color: rgb(212, 212, 212); background-color: rgb(30, 30, 30); font-family: Consolas, &amp;quot;Courier New&amp;quot;, monospace; font-size: 14px; line-height: 19px;&quot;&gt;winminion2&lt;br&gt;-no public ip&lt;/div&gt;" style="image;aspect=fixed;html=1;points=[];align=center;fontSize=12;image=img/lib/azure2/compute/Virtual_Machine.svg;" parent="1" vertex="1">
          <mxGeometry x="1920" y="774" width="69" height="64" as="geometry" />
        </mxCell>
        <mxCell id="NWdsYbLjLjOOZEH5t81Z-36" value="" style="edgeStyle=orthogonalEdgeStyle;rounded=0;orthogonalLoop=1;jettySize=auto;html=1;" parent="1" source="NWdsYbLjLjOOZEH5t81Z-33" target="NWdsYbLjLjOOZEH5t81Z-35" edge="1">
          <mxGeometry relative="1" as="geometry" />
        </mxCell>
        <mxCell id="NWdsYbLjLjOOZEH5t81Z-33" value="&lt;div style=&quot;color: rgb(212, 212, 212); background-color: rgb(30, 30, 30); font-family: Consolas, &amp;quot;Courier New&amp;quot;, monospace; font-size: 14px; line-height: 19px;&quot;&gt;ubuntuminion2&lt;br&gt;-no public ip&lt;br&gt;&lt;/div&gt;" style="image;aspect=fixed;html=1;points=[];align=center;fontSize=12;image=img/lib/azure2/compute/Virtual_Machine.svg;" parent="1" vertex="1">
          <mxGeometry x="1740" y="700" width="69" height="64" as="geometry" />
        </mxCell>
        <mxCell id="NWdsYbLjLjOOZEH5t81Z-35" value="&lt;div style=&quot;color: rgb(212, 212, 212); background-color: rgb(30, 30, 30); font-family: Consolas, &amp;quot;Courier New&amp;quot;, monospace; font-size: 14px; line-height: 19px;&quot;&gt;ubuntuminion2&lt;br&gt;-no public ip&lt;br&gt;&lt;/div&gt;" style="image;aspect=fixed;html=1;points=[];align=center;fontSize=12;image=img/lib/azure2/compute/Virtual_Machine.svg;" parent="1" vertex="1">
          <mxGeometry x="1740" y="844" width="69" height="64" as="geometry" />
        </mxCell>
        <mxCell id="NWdsYbLjLjOOZEH5t81Z-37" value="&lt;div style=&quot;color: rgb(212, 212, 212); background-color: rgb(30, 30, 30); font-family: Consolas, &amp;quot;Courier New&amp;quot;, monospace; font-size: 14px; line-height: 19px;&quot;&gt;winminion2&lt;br&gt;-no public ip&lt;/div&gt;" style="image;aspect=fixed;html=1;points=[];align=center;fontSize=12;image=img/lib/azure2/compute/Virtual_Machine.svg;" parent="1" vertex="1">
          <mxGeometry x="1920" y="918" width="69" height="64" as="geometry" />
        </mxCell>
        <mxCell id="ANwl6QladN45uAm6LXr9-2" style="edgeStyle=orthogonalEdgeStyle;rounded=0;orthogonalLoop=1;jettySize=auto;html=1;entryX=1.021;entryY=0.161;entryDx=0;entryDy=0;entryPerimeter=0;" edge="1" parent="1" source="ANwl6QladN45uAm6LXr9-1" target="NWdsYbLjLjOOZEH5t81Z-5">
          <mxGeometry relative="1" as="geometry" />
        </mxCell>
        <mxCell id="ANwl6QladN45uAm6LXr9-1" value="internet" style="ellipse;shape=cloud;whiteSpace=wrap;html=1;" vertex="1" parent="1">
          <mxGeometry x="1562.5" y="316" width="120" height="80" as="geometry" />
        </mxCell>
      </root>
    </mxGraphModel>
  </diagram>
</mxfile>
